<svg xmlns="http://www.w3.org/2000/svg" viewBox="0 0 1200 700">
  <defs>
    <linearGradient id="bg" x1="0" y1="0" x2="1" y2="1">
      <stop offset="0%" stop-color="#0c2a43"/>
      <stop offset="100%" stop-color="#1d5d89"/>
    </linearGradient>
  </defs>
  <rect width="1200" height="700" fill="url(#bg)"/>
  <rect x="120" y="180" width="260" height="420" rx="8" fill="#d8e6f3"/>
  <rect x="420" y="120" width="300" height="480" rx="8" fill="#e8f0f8"/>
  <rect x="760" y="220" width="320" height="380" rx="8" fill="#c7dbec"/>
  <g fill="#8fb2cf">
    <rect x="150" y="220" width="40" height="40"/><rect x="210" y="220" width="40" height="40"/><rect x="270" y="220" width="40" height="40"/>
    <rect x="150" y="280" width="40" height="40"/><rect x="210" y="280" width="40" height="40"/><rect x="270" y="280" width="40" height="40"/>
    <rect x="450" y="170" width="44" height="44"/><rect x="514" y="170" width="44" height="44"/><rect x="578" y="170" width="44" height="44"/>
    <rect x="450" y="240" width="44" height="44"/><rect x="514" y="240" width="44" height="44"/><rect x="578" y="240" width="44" height="44"/>
    <rect x="800" y="260" width="48" height="48"/><rect x="870" y="260" width="48" height="48"/><rect x="940" y="260" width="48" height="48"/>
  </g>
  <rect x="0" y="610" width="1200" height="90" fill="#173149"/>
  <text x="600" y="665" font-size="44" text-anchor="middle" fill="#ffffff" font-family="Arial, sans-serif">GMAO TECH - INDUSTRIAL OPERATIONS CENTER</text>
</svg>
